<?xml version="1.0" encoding="UTF-8"?><svg xmlns="http://www.w3.org/2000/svg" viewBox="0 0 835.51 542.3"><defs><style>.d{fill:#569567;}</style></defs><g id="a"/><g id="b"><g id="c"><g><g><path class="d" d="M77.1,227.03l-46.2,5.23-.74-6.52,46.2-5.23-.7-6.18,5.44-.62,2.14,18.89-5.44,.62-.7-6.18Z"/><path class="d" d="M62.92,246.77l1.75,6.68,22.3-5.83,1.66,6.35-50.28,13.15-1.66-6.35,22.43-5.87-1.75-6.68-22.43,5.87-1.66-6.35,50.28-13.15,1.66,6.35-22.3,5.83Z"/><path class="d" d="M89.97,257.37l6.36,14.91-5.16,2.2-3.78-8.87-15.85,6.76,3.3,7.74-5.16,2.2-3.3-7.74-16.48,7.03,3.84,8.99-5.16,2.2-6.42-15.03,47.8-20.4Z"/><path class="d" d="M88.1,298.22l12.83,1.29,15.1,18.47-1.29,12.83-18.94,15.49-9.23-11.29,14-11.45,.43-4.28-4.33-5.29-4.28-.43-65.41,53.48-.43,4.28,4.33,5.29,4.28,.43,24.47-20.01-4.62-5.65,10.12-8.27,13.85,16.94-39.53,32.32-12.83-1.29-15.1-18.47,1.29-12.83,75.29-61.56Z"/><path class="d" d="M129.49,331.97l26.8,20.49,1.71,12.78-29.17,38.15-11.29,1.51-23.31,45.5-11.23-8.58,22.78-44.56-4.95-3.78-29.91,39.12-11.59-8.86,70.15-91.75Zm-8.74,57.97l21.97-28.73-.57-4.26-8.45-6.46-25.66,33.56,8.45,6.46,4.26-.57Z"/><path class="d" d="M172.97,363.54l31.46,17.53-6.07,10.89-18.72-10.43-18.64,33.45,16.33,9.1-6.07,10.89-16.33-9.1-19.38,34.78,18.98,10.58-6.07,10.89-31.73-17.68,56.22-100.89Z"/><path class="d" d="M212.05,384.65l32.92,14.61-5.05,11.39-19.59-8.69-15.53,35.01,17.09,7.58-5.05,11.39-17.09-7.58-16.15,36.4,19.87,8.81-5.05,11.39-33.2-14.73,46.84-105.58Z"/><path class="d" d="M252.68,402.97l15.06,4.8-8.42,81.38,24.34-76.3,12.6,4.02-35.1,110.03-15.06-4.8,8.05-80.22-23.97,75.14-12.6-4.02,35.1-110.03Z"/><path class="d" d="M365.1,438.87l-20.86-2.12-4.01,39.46,18.75,1.9-1.26,12.4-18.75-1.9-5.14,50.65-14.51-1.47,11.67-114.9,35.38,3.59-1.26,12.4Z"/><path class="d" d="M417.63,532.91l-9.05,9.19-25.38,.2-9.19-9.05-.77-97.26,9.05-9.19,25.38-.2,9.19,9.05,.77,97.26Zm-26.73-93.71l-3.02,3.06,.67,84.49,3.06,3.02,8.36-.07,3.01-3.06-.67-84.49-3.06-3.02-8.36,.07Z"/><path class="d" d="M474.2,536.35l-24.28,3-10.17-7.93-13.06-105.57,14.48-1.79,12.28,99.24,3.39,2.64,7.39-.91,2.64-3.39-12.28-99.24,14.48-1.79,13.06,105.57-7.93,10.17Z"/><path class="d" d="M479.27,418.82l15.35-3.78,35.38,73.76-19.15-77.76,12.84-3.16,27.62,112.14-15.34,3.78-35.09-72.58,18.86,76.58-12.84,3.16-27.62-112.14Z"/><path class="d" d="M577.46,397.85l34.47,90.95-5.29,11.76-31.97,12.12-40.94-108,31.97-12.12,11.76,5.29Zm18.57,90.15l-29.95-79.01-3.92-1.76-10.37,3.93,32.1,84.69,10.37-3.93,1.77-3.92Z"/><path class="d" d="M634.28,455.27l11.15,27.77-12.95,6.71-40.88-108.9,18.62-9.65,65.71,96.03-13.49,6.99-16.27-25.11-11.87,6.16Zm-26.59-65.81l21.8,54.26,9.98-5.18-31.78-49.09Z"/><path class="d" d="M649.29,361.68l55.81,86.97-12.28,7.88-55.81-86.97-11.64,7.47-6.57-10.23,35.56-22.82,6.57,10.23-11.64,7.47Z"/><path class="d" d="M659.54,339.7l11.63-8.81,69.75,92.05-11.63,8.81-69.75-92.05Z"/><path class="d" d="M782.79,374.9l-.67,12.88-18.86,16.98-12.88-.67-65.09-72.27,.67-12.88,18.86-16.98,12.88,.67,65.09,72.27Zm-82.16-52.39l-.22,4.29,56.54,62.78,4.29,.22,6.21-5.59,.22-4.29-56.54-62.78-4.29-.22-6.21,5.59Z"/><path class="d" d="M718.69,288.74l10.47-11.84,71.07,40.53-60-53.06,8.76-9.9,86.52,76.52-10.47,11.84-70.16-39.73,59.09,52.25-8.76,9.9-86.52-76.52Z"/></g><g><path class="d" d="M327.14,176.68c6.22-.37,12.61-.67,19.15-.88,.63-24.14,2.01-46.63,4.07-65.72-4.68,.32-9.24,.77-13.67,1.32-4.61,17.91-8.04,39.98-9.54,65.28Z"/><path class="d" d="M390.92,205.55c0,7.69-.08,15.28-.22,22.74,6.59-.22,13.05-.52,19.35-.89,.31-7.06,.48-14.34,.48-21.85s-.17-14.79-.48-21.85c-6.3-.37-12.76-.68-19.35-.89,.15,7.46,.22,15.05,.22,22.74Z"/><path class="d" d="M358.26,102.65c3.33-.12,6.71-.19,10.15-.19s6.82,.07,10.15,.19c-4.13-33.13-8.87-40.26-10.15-41.61-1.28,1.36-6.02,8.48-10.15,41.62Z"/><path class="d" d="M345.91,205.55c0-7.68,.08-15.28,.22-22.74-6.61,.22-13.07,.53-19.35,.9-.31,7.05-.48,14.33-.48,21.83s.17,14.78,.48,21.83c6.28,.38,12.74,.69,19.35,.9-.15-7.46-.22-15.05-.22-22.74Z"/><path class="d" d="M368.41,235.66c-5.1,0-10.15-.06-15.11-.17,.64,24.24,2.05,46.88,4.13,65.92,3.59,.15,7.25,.23,10.98,.23s7.38-.08,10.98-.23c2.09-19.04,3.49-41.67,4.13-65.92-4.98,.11-10.02,.17-15.11,.17Z"/><path class="d" d="M368.41,175.44c5.09,0,10.13,.06,15.11,.17-.64-24.24-2.05-46.88-4.13-65.92-3.59-.15-7.25-.23-10.98-.23s-7.38,.08-10.98,.23c-2.09,19.04-3.5,41.67-4.13,65.92,4.97-.11,10.01-.17,15.11-.17Z"/><path class="d" d="M350.36,301.01c-2.05-19.09-3.44-41.57-4.07-65.72-6.54-.21-12.93-.51-19.15-.88,1.5,25.3,4.93,47.37,9.54,65.28,4.43,.55,8.99,.99,13.67,1.32Z"/><path class="d" d="M430.58,117.08c-7.21-1.81-14.91-3.41-23.08-4.66,4.66,18.97,7.8,41.06,9.19,64.69,10.2,.69,19.94,1.54,29.06,2.49-2.29-23.24-7.61-44.55-15.17-62.52Z"/><path class="d" d="M387.85,65.29c6.05,7.72,11.5,19.26,16.16,34.41,.53,1.73,1.05,3.5,1.55,5.3,7.48,1.04,14.58,2.36,21.29,3.87-10.23-20.95-23.73-36.4-39-43.58Z"/><path class="d" d="M409.68,234.43c-6.24,.36-12.63,.66-19.15,.87-.63,24.14-2.01,46.62-4.07,65.71,4.68-.32,9.24-.77,13.67-1.32,4.61-17.9,8.04-39.98,9.54-65.27Z"/><path class="d" d="M386.47,110.09c2.05,19.09,3.44,41.57,4.07,65.71,6.52,.21,12.91,.5,19.15,.87-1.5-25.29-4.93-47.36-9.54-65.27-4.43-.55-8.99-.99-13.67-1.32Z"/><path class="d" d="M353.14,182.62c-.15,7.53-.23,15.19-.23,22.93s.08,15.4,.23,22.93c5.02,.11,10.11,.18,15.27,.18s10.24-.06,15.27-.18c.15-7.53,.23-15.19,.23-22.93s-.08-15.4-.23-22.93c-5.03-.11-10.12-.18-15.27-.18s-10.26,.06-15.27,.18Z"/><path class="d" d="M251.21,185.03c2.04-19.23,6.89-37.32,14.01-53.57-17.82,8.19-28.18,15.81-29.82,17.06-5.57,12.95-9.31,26.86-10.87,41.42,4.75-1.01,13.99-2.86,26.69-4.91Z"/><path class="d" d="M251.21,226.07c-12.7-2.05-21.94-3.91-26.69-4.91,1.57,14.56,5.3,28.47,10.87,41.42,1.64,1.25,12,8.87,29.82,17.06-7.12-16.25-11.97-34.34-14.01-53.57Z"/><path class="d" d="M466.88,121.56c12.26,5.11,21.79,10.32,28.39,14.36-15.59-28.28-40.35-50.82-70.25-63.58,16.86,11.84,31.24,28.79,41.86,49.22Z"/><path class="d" d="M485.59,226.37c-2.05,19.11-6.89,37.1-13.97,53.26,17.82-8.19,28.18-15.81,29.82-17.06,5.5-12.77,9.2-26.49,10.81-40.83-5.71,1.12-14.85,2.81-26.66,4.63Z"/><path class="d" d="M486.7,205.55c0,4.6-.17,9.15-.48,13.64,12.34-1.93,21.55-3.68,26.65-4.71,.18-2.96,.28-5.93,.28-8.94s-.1-5.98-.28-8.93c-5.1-1.03-14.31-2.78-26.65-4.71,.31,4.5,.48,9.04,.48,13.64Z"/><path class="d" d="M454.02,205.55c0,6.09-.22,12.12-.62,18.08,9.42-1.08,18.05-2.23,25.73-3.36,.38-4.84,.57-9.75,.57-14.72s-.19-9.88-.57-14.72c-7.68-1.13-16.32-2.28-25.74-3.36,.39,5.96,.62,11.99,.62,18.08Z"/><path class="d" d="M282.81,205.55c0-6.05,.22-12.04,.61-17.96-9.51,1.13-18.15,2.33-25.75,3.5-.36,4.76-.55,9.58-.55,14.46s.19,9.7,.55,14.46c7.6,1.17,16.24,2.37,25.75,3.5-.39-5.92-.61-11.91-.61-17.96Z"/><path class="d" d="M319.3,205.55c0-7.22,.16-14.35,.47-21.38-10.36,.72-20.18,1.62-29.3,2.62-.43,6.14-.66,12.4-.66,18.76s.23,12.62,.66,18.76c9.12,.99,18.94,1.9,29.3,2.62-.31-7.02-.47-14.16-.47-21.38Z"/><path class="d" d="M378.29,65.25c.31,.9,.6,1.8,.87,2.69,2.32,7.65,4.39,18.53,6.16,32.34,.11,.89,.22,1.82,.33,2.72,4.26,.27,8.41,.63,12.46,1.07-5.59-18.93-12.56-32.33-19.83-38.82Z"/><path class="d" d="M250.12,205.55c0-4.49,.16-8.94,.46-13.33-13.87,2.28-23.26,4.26-26.67,5.01-.16,2.75-.24,5.52-.24,8.32s.09,5.56,.24,8.32c3.4,.75,12.8,2.73,26.67,5.01-.3-4.39-.46-8.84-.46-13.33Z"/><path class="d" d="M358.53,345.84c-.31-.9-.6-1.8-.87-2.69-2.32-7.65-4.39-18.53-6.16-32.34-.11-.89-.22-1.82-.33-2.72-4.25-.27-8.41-.63-12.46-1.07,5.59,18.93,12.56,32.33,19.82,38.82Z"/><path class="d" d="M280.08,117.61c6.49-2.36,13.59-4.61,21.27-6.63,1.86-4.13,3.83-8.13,5.94-11.94,6.71-12.12,14.38-21.96,22.72-29.34-19.94,9.56-37.21,26.36-49.94,47.92Z"/><path class="d" d="M452.83,230.73c-2.05,21.99-6.77,42.74-13.87,61.02,8.48-2.46,16.18-5.19,23.05-7.97,8.3-16.74,14.02-35.84,16.43-56.34-7.69,1.11-16.28,2.24-25.6,3.29Z"/><path class="d" d="M456.74,293.49c-6.49,2.36-13.59,4.61-21.27,6.63-1.86,4.13-3.83,8.13-5.95,11.94-6.71,12.12-14.38,21.96-22.72,29.34,19.94-9.56,37.21-26.36,49.93-47.92Z"/><path class="d" d="M330.02,341.41c-8.34-7.38-16.01-17.23-22.72-29.34-2.11-3.82-4.09-7.81-5.94-11.94-7.67-2.02-14.77-4.27-21.27-6.63,12.72,21.56,29.99,38.36,49.94,47.92Z"/><path class="d" d="M283.98,230.62c-9.41-1.1-18-2.27-25.62-3.43,2.38,20.6,8.12,39.78,16.45,56.59,6.87,2.78,14.57,5.51,23.05,7.97-7.12-18.31-11.84-39.1-13.88-61.14Z"/><path class="d" d="M283.98,180.48c2.04-22.03,6.77-42.83,13.88-61.14-8.48,2.46-16.18,5.19-23.05,7.97-8.34,16.81-14.07,36-16.45,56.59,7.62-1.15,16.21-2.33,25.62-3.43Z"/><path class="d" d="M269.95,121.56c10.62-20.43,25-37.38,41.86-49.22-29.9,12.76-54.67,35.3-70.25,63.58,6.6-4.04,16.13-9.25,28.39-14.36Z"/><path class="d" d="M401.75,16.49C304.91-24.22,160.5,12.17,116.71,106.73c-28.04-10.26-68.5-27.47-81-45.08-19.76-27.83-56.74,16.28-20.26,32.71,22.93,10.32,65.1,23.8,93.27,32.4-32.17,95.66-29.97,190.73,160.67,262.81,100.48,37.99,321.65,38.67,468.95-154.32-192.42,11.31-122.26-128.66-336.59-218.76Zm-33.34,340.8c-83.67,0-151.74-68.07-151.74-151.74S284.74,53.81,368.41,53.81s151.74,68.07,151.74,151.74-68.07,151.74-151.74,151.74Z"/><path class="d" d="M466.88,289.54c-10.62,20.43-25,37.38-41.86,49.22,29.9-12.76,54.67-35.3,70.25-63.58-6.6,4.04-16.13,9.25-28.39,14.36Z"/><path class="d" d="M471.61,131.46c7.08,16.17,11.92,34.15,13.97,53.26,11.8,1.82,20.95,3.51,26.66,4.63-1.6-14.34-5.31-28.06-10.81-40.83-1.63-1.24-11.99-8.87-29.82-17.06Z"/><path class="d" d="M269.95,289.54c-12.26-5.11-21.79-10.32-28.39-14.36,15.59,28.28,40.35,50.82,70.25,63.58-16.86-11.84-31.24-28.79-41.86-49.22Z"/><path class="d" d="M406.81,69.69c8.34,7.38,16.01,17.23,22.72,29.34,2.11,3.82,4.09,7.81,5.95,11.94,7.67,2.02,14.77,4.27,21.27,6.63-12.72-21.56-29.99-38.36-49.93-47.92Z"/><path class="d" d="M338.71,104.08c4.05-.45,8.21-.8,12.46-1.07,.11-.91,.22-1.83,.33-2.72,1.77-13.81,3.84-24.69,6.16-32.34,.27-.89,.56-1.79,.87-2.69-7.27,6.49-14.24,19.89-19.82,38.82Z"/><path class="d" d="M348.97,345.8c-6.05-7.72-11.5-19.26-16.16-34.41-.53-1.73-1.05-3.5-1.55-5.3-7.48-1.04-14.58-2.36-21.29-3.87,10.23,20.95,23.73,36.4,39,43.58Z"/><path class="d" d="M329.33,298.68c-4.66-18.98-7.8-41.08-9.19-64.71-10.26-.7-19.99-1.58-29.06-2.56,2.29,23.27,7.61,44.62,15.18,62.61,7.21,1.81,14.91,3.41,23.08,4.66Z"/><path class="d" d="M320.13,177.13c1.39-23.64,4.53-45.73,9.19-64.71-8.17,1.25-15.87,2.84-23.08,4.66-7.57,17.99-12.89,39.34-15.18,62.61,9.07-.97,18.81-1.85,29.06-2.56Z"/><path class="d" d="M438.96,119.35c7.11,18.28,11.83,39.03,13.87,61.02,9.32,1.05,17.91,2.18,25.6,3.29-2.4-20.5-8.12-39.6-16.43-56.34-6.87-2.78-14.57-5.51-23.05-7.97Z"/><path class="d" d="M378.57,308.44c-3.33,.12-6.71,.19-10.15,.19s-6.82-.07-10.15-.19c4.13,33.14,8.87,40.26,10.15,41.62,1.28-1.36,6.02-8.48,10.15-41.61Z"/><path class="d" d="M398.12,307.02c-4.05,.45-8.21,.8-12.46,1.07-.11,.91-.22,1.83-.33,2.72-1.77,13.81-3.84,24.69-6.16,32.34-.27,.89-.56,1.79-.87,2.69,7.27-6.49,14.24-19.89,19.83-38.82Z"/><path class="d" d="M446.35,186.7c-9.17-.97-18.99-1.85-29.3-2.55,.31,7.03,.47,14.17,.47,21.4s-.16,14.37-.47,21.4c10.31-.7,20.12-1.58,29.29-2.55,.44-6.17,.67-12.46,.67-18.85s-.23-12.68-.67-18.85Z"/><path class="d" d="M416.69,233.99c-1.4,23.63-4.53,45.72-9.19,64.69,8.17-1.25,15.87-2.84,23.08-4.66,7.56-17.97,12.88-39.28,15.17-62.52-9.12,.95-18.86,1.8-29.06,2.49Z"/><path class="d" d="M309.97,108.87c6.71-1.51,13.81-2.83,21.29-3.87,.5-1.8,1.02-3.57,1.55-5.3,4.66-15.15,10.1-26.68,16.16-34.41-15.27,7.18-28.77,22.63-39,43.58Z"/><path class="d" d="M426.86,302.22c-6.71,1.51-13.81,2.83-21.29,3.87-.5,1.8-1.02,3.57-1.55,5.3-4.66,15.15-10.1,26.68-16.16,34.41,15.27-7.18,28.77-22.63,39-43.58Z"/></g></g></g></g></svg>