<?xml version="1.0" encoding="UTF-8"?><svg xmlns="http://www.w3.org/2000/svg" viewBox="0 0 266.28 501.08"><defs><style>.d{fill:#569567;}</style></defs><g id="a"/><g id="b"><g id="c"><g><path class="d" d="M99.08,288.27c-2.83-7.77-4.74-16.45-5.65-25.6-3.53-.42-6.8-.86-9.77-1.3,1.13,8.69,3.59,16.8,7.09,23.96,2.53,1.02,5.31,2.01,8.33,2.94Z"/><path class="d" d="M119.02,208.43c-2.05,8.15-3.46,17.69-4.13,27.92,2.23-.13,4.52-.23,6.84-.31,.28-10.23,.87-19.79,1.72-28.03-1.5,.12-2.98,.26-4.42,.43Z"/><path class="d" d="M141.34,202.93c1.2,.08,2.38,.18,3.54,.3-1.69-5.42-3.64-9.77-5.68-12.81,.73,3.03,1.42,6.94,2.07,12.02,.02,.16,.04,.33,.06,.5Z"/><path class="d" d="M114.62,241.37c-.12,2.98-.19,6.01-.19,9.07s.07,6.09,.19,9.07c2.28,.13,4.62,.24,6.99,.33-.05-3.09-.08-6.23-.08-9.4s.03-6.31,.08-9.4c-2.38,.09-4.71,.2-6.99,.33Z"/><path class="d" d="M138.62,235.9c-.29-10.31-.89-19.97-1.77-28.18-1.37-.05-2.76-.08-4.17-.08s-2.8,.03-4.17,.08c-.87,8.21-1.47,17.87-1.77,28.18,1.96-.04,3.94-.06,5.94-.06s3.98,.02,5.94,.06Z"/><path class="d" d="M136.27,202.68c-1.34-10.3-2.77-14.58-3.58-16.3-.82,1.71-2.24,5.99-3.58,16.3,1.18-.03,2.37-.05,3.58-.05s2.4,.02,3.58,.05Z"/><path class="d" d="M82.96,250.45c0,1.95,.07,3.88,.2,5.79,2.97,.45,6.28,.91,9.87,1.35-.13-2.36-.21-4.74-.21-7.14s.07-4.78,.21-7.14c-3.6,.44-6.9,.9-9.87,1.35-.13,1.91-.2,3.84-.2,5.79Z"/><path class="d" d="M90.76,215.55c-3.51,7.16-5.97,15.28-7.1,23.98,2.97-.44,6.24-.88,9.77-1.3,.91-9.16,2.82-17.84,5.65-25.62-3.01,.93-5.79,1.92-8.32,2.94Z"/><path class="d" d="M98.09,242.73c-.16,2.54-.25,5.11-.25,7.71s.09,5.17,.25,7.71c3.62,.39,7.48,.74,11.52,1.03-.12-2.92-.18-5.84-.18-8.75s.06-5.83,.18-8.75c-4.05,.29-7.9,.65-11.52,1.03Z"/><path class="d" d="M107.83,205.15c2.31-.48,4.73-.91,7.23-1.27,1.61-5.68,3.56-10.63,5.83-14.5-4.58,3.11-8.81,8.04-12.43,14.58-.21,.39-.42,.79-.63,1.19Z"/><path class="d" d="M124.09,202.43c.65-5.08,1.35-8.99,2.07-12.02-2.04,3.03-3.99,7.39-5.68,12.81,1.16-.11,2.34-.21,3.54-.3,.02-.16,.04-.33,.06-.5Z"/><path class="d" d="M123.45,292.89c-.85-8.24-1.43-17.8-1.72-28.03-2.32-.08-4.6-.19-6.84-.31,.67,10.23,2.08,19.76,4.13,27.91,1.45,.17,2.92,.31,4.42,.43Z"/><path class="d" d="M160.27,289.94c3.29-7.9,5.53-16.97,6.58-26.66-3.6,.36-7.4,.69-11.36,.97-.63,9.71-1.91,19.17-3.83,27.47,3.02-.5,5.89-1.1,8.61-1.77Z"/><path class="d" d="M150.93,250.45c0-3.07-.07-6.1-.19-9.08-2.29-.13-4.62-.24-6.99-.32,.05,3.09,.08,6.23,.08,9.4s-.03,6.31-.08,9.4c2.37-.08,4.71-.19,6.99-.32,.12-2.98,.19-6.01,.19-9.08Z"/><path class="d" d="M167.28,258.2c.16-2.55,.26-5.14,.26-7.75s-.09-5.2-.26-7.75c-3.64-.38-7.5-.72-11.52-1.01,.12,2.92,.18,5.85,.18,8.76s-.06,5.84-.18,8.76c4.03-.29,7.88-.63,11.52-1.01Z"/><path class="d" d="M163.86,206.65c2.43,.65,4.74,1.35,6.91,2.08-4.29-6.67-9.58-12.2-15.56-16.19,2.17,2.6,4.21,5.61,6.08,8.99,.91,1.64,1.77,3.35,2.57,5.11Z"/><path class="d" d="M181.69,261.48c-2.99,.42-6.26,.85-9.76,1.25-.91,9.13-2.82,17.79-5.64,25.54,3.01-.93,5.8-1.93,8.33-2.94,3.49-7.13,5.94-15.2,7.08-23.85Z"/><path class="d" d="M151.66,209.19c1.92,8.3,3.2,17.76,3.83,27.47,3.96,.28,7.76,.61,11.36,.97-1.05-9.69-3.29-18.77-6.58-26.66-2.72-.67-5.59-1.27-8.61-1.77Z"/><path class="d" d="M146.34,292.46c2.05-8.15,3.46-17.68,4.13-27.91-2.24,.12-4.52,.23-6.84,.31-.28,10.23-.87,19.79-1.72,28.03,1.5-.12,2.98-.26,4.42-.43Z"/><path class="d" d="M150.47,236.34c-.67-10.23-2.08-19.76-4.13-27.91-1.45-.17-2.92-.31-4.42-.43,.85,8.24,1.43,17.8,1.72,28.03,2.32,.08,4.6,.18,6.84,.31Z"/><path class="d" d="M166.29,212.63c2.82,7.76,4.74,16.41,5.64,25.54,3.5,.4,6.77,.83,9.76,1.25-1.14-8.65-3.59-16.72-7.08-23.85-2.53-1.01-5.31-2.01-8.33-2.94Z"/><path class="d" d="M182.41,250.45c0-1.99-.07-3.96-.21-5.9-3-.43-6.31-.87-9.87-1.29,.14,2.38,.21,4.78,.21,7.19s-.07,4.82-.21,7.19c3.56-.42,6.87-.86,9.87-1.29,.13-1.94,.21-3.91,.21-5.9Z"/><path class="d" d="M157.54,205.15c-.21-.4-.41-.8-.63-1.19-3.63-6.55-7.86-11.47-12.43-14.58,2.27,3.87,4.22,8.82,5.83,14.5,2.5,.36,4.92,.79,7.23,1.27Z"/><path class="d" d="M83.92,218.58c-6.23,3.05-10.01,5.75-11.03,6.5-2.29,5.38-3.87,11.12-4.64,17.12,2.25-.46,5.75-1.13,10.26-1.87,.86-7.63,2.69-14.96,5.41-21.74Z"/><path class="d" d="M163.86,294.24c-.8,1.77-1.66,3.47-2.57,5.11-1.87,3.38-3.91,6.38-6.08,8.99,5.99-3.99,11.28-9.52,15.56-16.19-2.17,.73-4.48,1.43-6.91,2.08Z"/><path class="d" d="M157.53,295.74c-2.31,.48-4.73,.91-7.23,1.27-1.61,5.68-3.56,10.63-5.83,14.5,4.58-3.11,8.81-8.04,12.43-14.58,.21-.39,.42-.79,.63-1.19Z"/><path class="d" d="M126.74,265c.29,10.31,.89,19.97,1.77,28.18,1.37,.05,2.76,.08,4.17,.08s2.8-.03,4.17-.08c.87-8.21,1.47-17.87,1.77-28.18-1.96,.04-3.94,.06-5.94,.06s-3.98-.02-5.94-.06Z"/><path class="d" d="M113.71,291.71c-1.92-8.3-3.21-17.77-3.83-27.48-3.98-.28-7.78-.62-11.36-.99,1.05,9.7,3.29,18.79,6.59,26.7,2.72,.67,5.59,1.27,8.61,1.77Z"/><path class="d" d="M132.68,240.84c-2.04,0-4.06,.02-6.06,.06-.06,3.14-.09,6.33-.09,9.54s.03,6.4,.09,9.54c1.99,.04,4.01,.06,6.06,.06s4.06-.02,6.06-.06c.06-3.14,.09-6.33,.09-9.54s-.03-6.4-.09-9.54c-2-.04-4.02-.06-6.06-.06Z"/><path class="d" d="M171.59,299.67c-1.92,2.47-3.95,4.74-6.09,6.8,9.1-5.35,16.79-12.86,22.36-21.81-2.61,1.45-5.84,3.08-9.66,4.68-1.92,3.67-4.13,7.13-6.61,10.33Z"/><path class="d" d="M165.5,194.42c2.14,2.05,4.17,4.32,6.09,6.8,2.48,3.2,4.69,6.66,6.61,10.33,3.81,1.61,7.04,3.23,9.66,4.68-5.57-8.95-13.26-16.46-22.36-21.81Z"/><path class="d" d="M265.98,250.69C263.34,178.44,206.08,41.05,47.93,0,105.13,116.43,0,109.41,0,265.87c0,70.7,60.24,150.8,130.33,153.3,.95,20.07,.83,49.66-6.84,62.01-12.11,19.52,24.9,30.96,25.57,4.04,.42-16.92-2.21-46.6-4.23-66.31,67.74-4.99,126.14-31.15,121.14-168.22Zm-133.29,69.71c-38.57,0-69.95-31.38-69.95-69.95s31.38-69.95,69.95-69.95,69.95,31.38,69.95,69.95-31.38,69.95-69.95,69.95Z"/><path class="d" d="M181.45,282.29c6.22-3.04,10-5.73,11.02-6.48,2.26-5.3,3.83-10.96,4.6-16.86-2.48,.47-5.96,1.1-10.24,1.77-.86,7.57-2.69,14.84-5.38,21.58Z"/><path class="d" d="M187.42,250.45c0,1.72-.05,3.43-.14,5.13,4.53-.72,8.05-1.38,10.28-1.82,.06-1.1,.08-2.2,.08-3.31s-.03-2.21-.08-3.31c-2.23-.44-5.74-1.1-10.28-1.82,.1,1.7,.14,3.41,.14,5.13Z"/><path class="d" d="M186.83,240.18c4.28,.67,7.76,1.29,10.24,1.77-.78-5.91-2.35-11.56-4.6-16.86-1.01-.75-4.8-3.43-11.02-6.48,2.7,6.74,4.52,14.01,5.38,21.58Z"/><path class="d" d="M141.34,297.96c-.02,.16-.04,.33-.06,.5-.65,5.08-1.35,8.99-2.07,12.02,2.04-3.03,3.99-7.39,5.68-12.81-1.16,.11-2.34,.21-3.54,.3Z"/><path class="d" d="M77.95,250.45c0-1.67,.05-3.33,.14-4.98-4.94,.83-8.49,1.56-10.28,1.94-.05,1.01-.07,2.02-.07,3.04s.03,2.03,.07,3.04c1.79,.38,5.34,1.11,10.28,1.94-.09-1.65-.14-3.31-.14-4.98Z"/><path class="d" d="M93.77,201.22c1.92-2.47,3.95-4.74,6.09-6.8-9.1,5.35-16.79,12.86-22.36,21.81,2.61-1.45,5.84-3.08,9.66-4.68,1.92-3.67,4.13-7.13,6.61-10.33Z"/><path class="d" d="M105.1,210.94c-3.3,7.91-5.54,17.01-6.59,26.72,3.59-.37,7.38-.71,11.36-.99,.63-9.72,1.91-19.18,3.83-27.49-3.02,.5-5.89,1.1-8.6,1.76Z"/><path class="d" d="M101.51,206.65c.8-1.77,1.66-3.47,2.57-5.11,1.87-3.38,3.91-6.38,6.08-8.99-5.99,3.99-11.28,9.52-15.56,16.19,2.17-.73,4.48-1.43,6.91-2.08Z"/><path class="d" d="M129.1,298.21c1.34,10.3,2.77,14.58,3.58,16.29,.81-1.71,2.24-5.99,3.58-16.29-1.18,.03-2.37,.05-3.58,.05s-2.4-.02-3.58-.05Z"/><path class="d" d="M78.52,260.57c-4.51-.74-8.01-1.41-10.26-1.87,.76,6,2.35,11.74,4.64,17.11,1.02,.75,4.8,3.44,11.02,6.48-2.71-6.78-4.54-14.1-5.4-21.72Z"/><path class="d" d="M107.83,295.74c.21,.4,.41,.8,.63,1.19,3.63,6.55,7.86,11.47,12.43,14.58-2.27-3.87-4.22-8.82-5.83-14.5-2.5-.36-4.92-.79-7.23-1.27Z"/><path class="d" d="M93.77,299.67c-2.48-3.2-4.69-6.66-6.61-10.33-3.81-1.61-7.04-3.23-9.66-4.68,5.57,8.95,13.26,16.46,22.36,21.81-2.14-2.05-4.17-4.32-6.09-6.8Z"/><path class="d" d="M124.03,297.96c-1.2-.08-2.38-.18-3.54-.3,1.69,5.42,3.64,9.77,5.68,12.81-.73-3.03-1.42-6.94-2.07-12.02-.02-.16-.04-.33-.06-.5Z"/><path class="d" d="M101.51,294.24c-2.43-.65-4.74-1.35-6.91-2.08,4.29,6.67,9.58,12.2,15.56,16.19-2.17-2.6-4.21-5.61-6.08-8.99-.91-1.64-1.77-3.35-2.57-5.11Z"/></g></g></g></svg>