<?xml version="1.0" encoding="UTF-8"?><svg xmlns="http://www.w3.org/2000/svg" viewBox="0 0 418.96 339.03"><defs><style>.d{fill:none;stroke:#569567;stroke-miterlimit:10;stroke-width:10px;}.e{fill:#569567;font-family:Abolition-Regular, Abolition;font-size:150px;}</style></defs><g id="a"/><g id="b"><g id="c"><g><g><circle class="d" cx="213.72" cy="169.52" r="148.24"/><ellipse class="d" cx="213.72" cy="169.52" rx="114.79" ry="148.24"/><ellipse class="d" cx="213.72" cy="169.52" rx="82.1" ry="148.24"/><ellipse class="d" cx="213.72" cy="169.52" rx="45.61" ry="148.24"/><ellipse class="d" cx="213.72" cy="169.52" rx="19.01" ry="148.24"/><g><path class="d" d="M78.29,109.93s50.29-40,135.43-40,135.43,40,135.43,40"/><path class="d" d="M67,158.11s64.62-15.2,146.72-15.2,149.76,15.2,149.76,15.2"/><path class="d" d="M78.29,229.11s50.29,40,135.43,40,135.43-40,135.43-40"/><path class="d" d="M67,180.92s64.62,15.2,146.72,15.2,149.76-15.2,149.76-15.2"/></g></g><g><text class="e" transform="translate(0 132)"><tspan x="0" y="0">G</tspan></text><text class="e" transform="translate(377.11 313.98)"><tspan x="0" y="0">F</tspan></text></g></g></g></g></svg>