<?xml version="1.0" encoding="UTF-8"?><svg xmlns="http://www.w3.org/2000/svg" viewBox="0 0 499.81 277.2"><defs><style>.d{fill:#569567;}</style></defs><g id="a"/><g id="b"><g id="c"><g><path class="d" d="M239.59,190.24c-1.1-10.3-1.85-22.41-2.19-35.41-3.47-.11-6.86-.28-10.17-.47,.81,13.63,2.66,25.53,5.13,35.19,2.34,.29,4.75,.52,7.23,.69Z"/><path class="d" d="M227.23,122.84c3.31-.19,6.7-.36,10.17-.47,.34-13,1.09-25.11,2.19-35.41-2.47,.17-4.88,.4-7.22,.69-2.48,9.66-4.32,21.56-5.13,35.19Z"/><path class="d" d="M249.49,86.6c-1.99,0-3.94,.05-5.86,.13-1.05,9.56-1.87,21.5-2.24,35.53,2.66-.06,5.36-.09,8.1-.09s5.43,.03,8.1,.09c-.37-14.03-1.19-25.96-2.24-35.53-1.92-.08-3.87-.13-5.86-.13Z"/><path class="d" d="M241.31,126.26c-.08,3.96-.12,8.07-.12,12.33s.04,8.37,.12,12.33c2.69,.06,5.42,.09,8.19,.09s5.49-.03,8.19-.09c.08-3.96,.12-8.07,.12-12.33s-.04-8.37-.12-12.33c-2.7-.06-5.43-.09-8.19-.09s-5.5,.03-8.19,.09Z"/><path class="d" d="M261.8,138.6c0,4.13-.04,8.21-.12,12.22,3.5-.12,6.93-.28,10.29-.48,.17-3.8,.26-7.71,.26-11.75s-.09-7.95-.26-11.75c-3.35-.2-6.78-.36-10.29-.48,.08,4.01,.12,8.09,.12,12.22Z"/><path class="d" d="M237.19,138.6c0-4.13,.04-8.21,.12-12.22-3.52,.12-6.94,.28-10.29,.48-.17,3.79-.26,7.71-.26,11.74s.09,7.94,.26,11.74c3.34,.2,6.77,.37,10.29,.48-.08-4.01-.12-8.09-.12-12.22Z"/><path class="d" d="M260.26,62.77c3.74,4.91,6.89,12.29,9.37,21.2,3.99,.55,7.78,1.25,11.37,2.06-5.47-11.12-12.63-19.35-20.74-23.26Z"/><path class="d" d="M283.12,90.71c-3.86-.97-8-1.82-12.37-2.49,2.52,10.36,4.22,22.41,5,34.86,5.46,.37,10.67,.82,15.56,1.33-1.25-12.52-4.11-24.01-8.18-33.7Z"/><path class="d" d="M271.76,154.36c-3.32,.19-6.71,.35-10.17,.46-.34,13-1.09,25.11-2.19,35.41,2.47-.17,4.88-.41,7.22-.69,2.48-9.66,4.32-21.56,5.13-35.18Z"/><path class="d" d="M259.4,86.96c1.1,10.3,1.85,22.41,2.19,35.41,3.46,.11,6.85,.27,10.17,.46-.81-13.62-2.66-25.52-5.13-35.18-2.34-.29-4.75-.52-7.22-.69Z"/><path class="d" d="M255.35,190.46c1.05-9.56,1.87-21.5,2.24-35.53-2.67,.06-5.37,.09-8.1,.09s-5.44-.03-8.1-.09c.37,14.03,1.19,25.96,2.24,35.53,1.92,.08,3.87,.13,5.86,.13s3.94-.06,5.86-.13Z"/><path class="d" d="M222.76,138.6c0-3.83,.09-7.66,.27-11.48-5.55,.39-10.8,.87-15.69,1.4-.23,3.3-.36,6.66-.36,10.08s.13,6.77,.36,10.08c4.89,.53,10.14,1.01,15.69,1.4-.18-3.81-.27-7.65-.27-11.48Z"/><path class="d" d="M185.86,149.81c-6.74-1.09-11.66-2.07-14.27-2.62,.86,7.82,2.87,15.3,5.86,22.27,.94,.71,6.45,4.74,15.89,9.1-3.8-8.73-6.38-18.44-7.48-28.75Z"/><path class="d" d="M185.86,127.38c1.1-10.32,3.69-20.03,7.49-28.77-9.45,4.37-14.96,8.41-15.89,9.12-2.99,6.96-5,14.44-5.86,22.27,2.6-.55,7.53-1.53,14.27-2.62Z"/><path class="d" d="M302.95,92.98c6.43,2.68,11.47,5.41,15.03,7.57-8.3-14.87-21.29-26.77-36.97-33.69,8.81,6.39,16.33,15.36,21.94,26.12Z"/><path class="d" d="M313.11,149.98c-1.11,10.25-3.69,19.9-7.47,28.59,9.43-4.36,14.95-8.39,15.89-9.1,2.95-6.87,4.94-14.24,5.82-21.95-3.09,.61-7.98,1.5-14.24,2.47Z"/><path class="d" d="M313.74,138.6c0,2.45-.1,4.88-.26,7.28,6.57-1.03,11.48-1.96,14.24-2.52,.1-1.58,.16-3.16,.16-4.76s-.06-3.19-.16-4.76c-2.76-.56-7.68-1.49-14.24-2.52,.16,2.4,.26,4.82,.26,7.28Z"/><path class="d" d="M255.09,62.89c1.27,3.78,2.52,9.63,3.67,18.62,.06,.46,.11,.93,.17,1.4,2.23,.14,4.41,.33,6.53,.56-2.94-9.92-6.57-17-10.37-20.58Z"/><path class="d" d="M244.11,82.71c1.77-.06,3.56-.11,5.39-.11s3.62,.04,5.39,.11c-1.63-13.06-3.67-20.85-5.39-22.37-1.71,1.51-3.76,9.31-5.39,22.37Z"/><path class="d" d="M202.98,138.6c0-3.24,.12-6.45,.32-9.62-5.07,.6-9.68,1.24-13.75,1.87-.19,2.55-.3,5.13-.3,7.75s.1,5.2,.3,7.75c4.07,.62,8.68,1.27,13.75,1.87-.21-3.17-.32-6.38-.32-9.62Z"/><path class="d" d="M185.25,138.6c0-2.4,.1-4.76,.25-7.11-7.36,1.21-12.37,2.27-14.26,2.68-.08,1.47-.13,2.94-.13,4.43s.05,2.96,.13,4.43c1.89,.41,6.9,1.47,14.26,2.68-.16-2.34-.25-4.71-.25-7.11Z"/><path class="d" d="M243.89,214.31c-1.27-3.78-2.52-9.63-3.67-18.62-.06-.46-.11-.93-.17-1.4-2.23-.14-4.41-.33-6.53-.56,2.94,9.91,6.57,17,10.37,20.58Z"/><path class="d" d="M296.01,138.6c0,3.26-.12,6.49-.33,9.68,5.02-.58,9.64-1.19,13.75-1.79,.2-2.6,.3-5.23,.3-7.89s-.1-5.29-.3-7.89c-4.11-.6-8.72-1.22-13.75-1.79,.21,3.19,.33,6.42,.33,9.68Z"/><path class="d" d="M229.35,83.98c2.49-8.91,5.63-16.3,9.37-21.2-8.11,3.92-15.28,12.14-20.74,23.26,3.59-.8,7.38-1.51,11.37-2.06Z"/><path class="d" d="M233.52,83.47c2.12-.23,4.3-.42,6.53-.56,.06-.47,.11-.94,.17-1.4,1.15-8.99,2.4-14.84,3.67-18.62-3.8,3.58-7.44,10.66-10.37,20.58Z"/><path class="d" d="M228.07,211.84c-4.32-3.95-8.31-9.12-11.81-15.43-1.14-2.06-2.21-4.22-3.21-6.45-4.04-1.06-7.78-2.25-11.21-3.48,6.73,11.32,15.79,20.18,26.23,25.37Z"/><path class="d" d="M203.62,124.92c1.1-11.85,3.64-23.04,7.45-32.91-4.49,1.31-8.58,2.75-12.22,4.22-4.5,9.07-7.61,19.4-8.91,30.51,4.07-.62,8.67-1.24,13.68-1.83Z"/><path class="d" d="M203.62,152.28c-5.01-.59-9.6-1.21-13.68-1.83,1.3,11.1,4.41,21.43,8.9,30.49,3.65,1.47,7.74,2.92,12.23,4.23-3.81-9.86-6.34-21.05-7.45-32.89Z"/><path class="d" d="M295.36,152.34c-1.11,11.82-3.64,22.98-7.44,32.83,4.49-1.31,8.58-2.75,12.23-4.23,4.47-9.03,7.58-19.31,8.88-30.36-4.11,.59-8.7,1.2-13.67,1.76Z"/><path class="d" d="M297.14,186.47c-3.43,1.24-7.17,2.42-11.21,3.48-1,2.23-2.07,4.39-3.21,6.45-3.5,6.32-7.48,11.48-11.81,15.43,10.44-5.19,19.5-14.05,26.23-25.37Z"/><path class="d" d="M302.95,184.21c-5.6,10.76-13.13,19.73-21.94,26.12,15.68-6.92,28.67-18.81,36.97-33.69-3.56,2.16-8.6,4.89-15.03,7.57Z"/><path class="d" d="M305.64,98.63c3.78,8.69,6.36,18.34,7.47,28.59,6.26,.97,11.15,1.86,14.24,2.47-.88-7.71-2.87-15.08-5.82-21.95-.94-.71-6.45-4.74-15.89-9.1Z"/><path class="d" d="M271.96,11.16c-65.56-27.56-163.31-2.93-192.95,61.09-18.98-6.95-46.37-18.59-54.83-30.51-13.37-18.84-38.41,11.02-13.71,22.14,15.52,6.99,44.07,16.11,63.14,21.93-21.78,64.75-20.29,129.11,108.76,177.91,68.02,25.72,217.73,26.18,317.45-104.47-130.26,7.66-82.76-87.09-227.85-148.08Zm-22.47,209.81c-45.42,0-82.38-36.95-82.38-82.38s36.95-82.38,82.38-82.38,82.38,36.95,82.38,82.38-36.95,82.38-82.38,82.38Z"/><path class="d" d="M196.03,184.21c-6.43-2.68-11.47-5.41-15.03-7.57,8.3,14.87,21.29,26.77,36.96,33.69-8.81-6.39-16.33-15.36-21.94-26.12Z"/><path class="d" d="M196.03,92.98c5.6-10.76,13.13-19.73,21.94-26.12-15.68,6.92-28.67,18.81-36.96,33.69,3.56-2.16,8.6-4.89,15.03-7.57Z"/><path class="d" d="M201.84,90.73c3.43-1.24,7.17-2.42,11.21-3.48,1-2.23,2.07-4.39,3.21-6.45,3.5-6.32,7.48-11.48,11.81-15.43-10.44,5.19-19.5,14.05-26.23,25.37Z"/><path class="d" d="M254.88,194.49c-1.77,.06-3.56,.11-5.39,.11s-3.62-.04-5.39-.11c1.63,13.06,3.67,20.85,5.39,22.37,1.71-1.51,3.76-9.31,5.39-22.37Z"/><path class="d" d="M238.72,214.42c-3.74-4.91-6.89-12.29-9.37-21.2-3.99-.55-7.78-1.26-11.37-2.06,5.47,11.12,12.63,19.35,20.74,23.26Z"/><path class="d" d="M270.91,65.36c4.32,3.95,8.31,9.12,11.81,15.43,1.14,2.06,2.21,4.22,3.21,6.45,4.04,1.06,7.78,2.25,11.21,3.48-6.73-11.32-15.79-20.18-26.23-25.37Z"/><path class="d" d="M223.25,123.1c.78-12.45,2.47-24.51,5-34.88-4.37,.67-8.51,1.51-12.37,2.48-4.08,9.71-6.95,21.21-8.19,33.76,4.86-.52,10.08-.99,15.56-1.37Z"/><path class="d" d="M228.24,188.97c-2.52-10.36-4.22-22.42-5-34.87-5.49-.38-10.7-.85-15.56-1.37,1.24,12.54,4.11,24.04,8.19,33.75,3.86,.97,8,1.82,12.37,2.49Z"/><path class="d" d="M265.47,193.73c-2.12,.23-4.3,.42-6.53,.56-.06,.47-.11,.94-.17,1.4-1.15,8.99-2.4,14.84-3.67,18.62,3.8-3.58,7.44-10.66,10.37-20.58Z"/><path class="d" d="M269.64,193.22c-2.49,8.91-5.63,16.3-9.37,21.2,8.11-3.92,15.28-12.14,20.74-23.26-3.59,.8-7.38,1.51-11.37,2.06Z"/><path class="d" d="M291.64,128.47c-4.92-.52-10.17-.99-15.68-1.36,.18,3.82,.27,7.66,.27,11.49s-.09,7.67-.27,11.49c5.51-.38,10.77-.85,15.68-1.36,.23-3.32,.37-6.69,.37-10.13s-.13-6.81-.37-10.13Z"/><path class="d" d="M287.92,92.02c3.8,9.85,6.33,21.01,7.44,32.83,4.97,.56,9.56,1.16,13.67,1.76-1.31-11.05-4.41-21.33-8.88-30.36-3.65-1.47-7.74-2.92-12.23-4.23Z"/><path class="d" d="M275.74,154.11c-.78,12.45-2.47,24.5-5,34.86,4.37-.67,8.51-1.52,12.37-2.49,4.07-9.69,6.93-21.18,8.18-33.7-4.89,.51-10.1,.96-15.56,1.33Z"/></g></g></g></svg>